<svg width="32" height="32" viewBox="0 0 32 32" xmlns="http://www.w3.org/2000/svg">
    <defs>
        <linearGradient id="brainGradient" x1="0%" y1="0%" x2="100%" y2="100%">
            <stop offset="0%" style="stop-color:#00F5FF;stop-opacity:1" />
            <stop offset="100%" style="stop-color:#FF00FF;stop-opacity:1" />
        </linearGradient>
    </defs>
    <circle cx="16" cy="16" r="15" fill="url(#brainGradient)"/>
    <path d="M16 8 C14 8, 12 10, 12 12 C12 14, 13 15, 14 15 C14 17, 12 19, 10 19 C8 19, 7 18, 7 16 C7 14, 8 13, 10 13 C10 11, 9 9, 11 8 C13 7, 15 7, 16 8 Z M16 8 C18 8, 20 10, 20 12 C20 14, 19 15, 18 15 C18 17, 20 19, 22 19 C24 19, 25 18, 25 16 C25 14, 24 13, 22 13 C22 11, 23 9, 21 8 C19 7, 17 7, 16 8 Z" fill="white"/>
</svg>
